<svg width="343" height="273" viewBox="0 0 343 273" fill="none" xmlns="http://www.w3.org/2000/svg">
<path fill-rule="evenodd" clip-rule="evenodd" d="M255.804 111.806C262.948 100.316 269.811 82.6321 273.894 71.3311C276.235 64.8521 280.244 59.0957 285.599 54.8478C285.904 54.6059 286.21 54.3652 286.516 54.1245C288.048 52.9197 289.581 51.714 290.976 50.355L342.675 0L291.799 32.3581L284.005 29.1346C275.043 25.4284 265.14 31.6171 264.46 41.2059C264.439 41.4941 264.438 41.7824 264.441 42.0713C264.454 43.3778 264.459 47.3722 264.087 50.0683C262.06 64.7284 254.215 71.7996 243.229 81.7019L243.192 81.7357C233.065 90.864 222.653 92.21 211.611 93.6375C205.076 94.4823 198.32 95.3557 191.271 97.8876C191.271 97.8876 200.842 110.372 214.514 120.313C223.871 127.117 240.491 134.553 240.491 134.553C245.468 127.726 250.288 120.677 255.804 111.806ZM47.0031 221.436C47.0031 221.436 118.782 172.746 118.179 172.774C117.832 172.789 93.5068 187.544 70.6956 202.31C50.0454 215.678 24.5268 223.323 0 221.436C13.8923 210.609 28.3694 199.923 42.9086 189.192C64.8773 172.976 86.9876 156.656 107.436 139.586C115.493 150.41 124.2 161.27 139.666 174.583C156.783 189.316 182.614 205.012 191.083 209.604C154.804 242.694 105.307 259.908 58.7891 272.468L131.609 212.036C131.609 212.036 114.15 221.436 85.9485 221.436C85.9485 221.436 112.197 207.776 128.923 195.92L92.8381 212.436C77.6748 221.915 47.0031 221.436 47.0031 221.436Z" fill="white"/>
<path d="M200.075 117.682L187.256 143.886L207.261 164.779L179.265 160.221L166.446 186.426L161.504 157.156L133.845 152.483L158.861 138.993L154.655 109.943L174.943 130.834L200.075 117.682Z" fill="white"/>
<path d="M149.822 126.611C132.48 105.092 125.744 84.0644 134.485 71.8145C146.276 55.2907 182.328 60.2009 219.521 81.8556C170.001 50.0212 119.193 42.2902 102.802 65.2618C89.8717 83.3834 101.975 115.544 130.349 146.222L151.046 135.061L149.822 126.611Z" fill="white"/>
<path d="M148.312 93.121C146.353 85.6741 146.904 79.0886 150.418 74.1643C160.647 59.8291 192.353 64.6535 223.256 84.5195C200.046 71.0061 177.547 67.9419 170.19 78.2534C164.012 86.9106 170.222 102.593 184.403 117.79L176.358 122L148.312 93.121Z" fill="white"/>
<path d="M175.631 183.965C225.367 216.171 276.571 224.08 293.038 201.002C302.116 188.28 298.854 168.637 286.286 147.446C292.876 161.057 293.974 173.219 288.113 181.434C276.315 197.968 240.223 193.041 203.005 171.351L183.366 168.154L175.631 183.965Z" fill="white"/>
<path d="M208.253 155.448C235.025 169.309 260.224 171.357 269.133 158.872C274.798 150.932 272.763 138.675 264.92 125.45C269.032 133.944 269.717 141.534 266.06 146.66C257.632 158.472 229.338 152.733 202.865 133.843C202.189 133.361 201.522 132.876 200.862 132.387L195.895 142.542L208.253 155.448Z" fill="white"/>
</svg>
